<?xml version="1.0" encoding="iso-8859-1"?>
<!-- Generator: Adobe Illustrator 19.0.0, SVG Export Plug-In . SVG Version: 6.00 Build 0)  -->
<svg version="1.1" id="Capa_1" xmlns="http://www.w3.org/2000/svg" xmlns:xlink="http://www.w3.org/1999/xlink" x="0px" y="0px"
	 viewBox="0 0 512 512" style="enable-background:new 0 0 512 512;" xml:space="preserve">
<path d="M0,324.404c0-28.56,6.808-51.12,20.424-67.672c13.6-16.568,33.456-27.416,59.536-32.56v29.696
	c-19.416,6.096-32.464,16.568-39.128,31.408c-3.424,7.816-4.856,15.896-4.28,24.272h44.832v75.096H0V324.404z M135.352,324.404
	c0-28.936,6.992-51.584,20.984-67.96s33.648-27.128,58.968-32.272v29.696c-19.224,5.904-32.168,16.568-38.832,31.976
	c-3.808,8.184-5.336,16.088-4.568,23.704h44.824v75.096h-81.376V324.404z" fill="#d3d9da"/>
<path style="fill:#d3d9da;" d="M297.264,257.86c19.224-6.088,32.168-16.568,38.832-31.416c3.616-7.808,5.136-15.792,4.568-23.984
	H295.84v-75.104h81.384v60.256c0,27.984-6.808,50.448-20.416,67.392c-13.616,16.944-33.456,27.888-59.536,32.84V257.86H297.264z
	 M432.04,257.86c19.736-5.904,32.864-16.752,39.384-32.56c2.68-6.28,4.024-13.888,4.024-22.84h-44.832v-75.104H512v60.256
	c0,27.224-6.64,49.448-19.92,66.68c-13.272,17.232-33.288,28.408-60.04,33.544L432.04,257.86L432.04,257.86z"/>
<g>
</g>
<g>
</g>
<g>
</g>
<g>
</g>
<g>
</g>
<g>
</g>
<g>
</g>
<g>
</g>
<g>
</g>
<g>
</g>
<g>
</g>
<g>
</g>
<g>
</g>
<g>
</g>
<g>
</g>
</svg>
